#define lourd_width 64
#define lourd_height 64
static char lourd_bits[] = {
 0x00,0x00,0x00,0x00,0x00,0x00,0x00,0x00,0x00,0x00,0x00,0x00,0x00,0x00,0x00,
 0x00,0x00,0x00,0x00,0x00,0x00,0x00,0x00,0x00,0x00,0x00,0x00,0x00,0x00,0x00,
 0x00,0x00,0x00,0x00,0x00,0xfc,0x3f,0x00,0x00,0x00,0x00,0x00,0x00,0xfc,0x3f,
 0x00,0x00,0x00,0x00,0x00,0x00,0x03,0xc0,0x00,0x00,0x00,0x00,0x00,0x00,0x03,
 0xc0,0x00,0x00,0x00,0x00,0x00,0xc0,0x00,0x00,0x03,0x00,0x00,0x00,0x00,0xc0,
 0x20,0x02,0x03,0x00,0x00,0x00,0x00,0xc0,0x02,0x08,0x03,0x00,0x00,0x00,0x00,
 0xc0,0x00,0x00,0x03,0x00,0x00,0x00,0x00,0xf0,0x13,0xc0,0x0f,0x00,0x00,0x00,
 0x00,0xf0,0x03,0xc1,0x0f,0x00,0x00,0x00,0x00,0x0c,0x0c,0x38,0x30,0x00,0x00,
 0x00,0x00,0x0c,0x0c,0x30,0x30,0x00,0x00,0x00,0x00,0xff,0x7f,0xfc,0xff,0x00,
 0x00,0x00,0x00,0xff,0x3f,0xfc,0xff,0x00,0x00,0x00,0x00,0x43,0x33,0x8c,0xc2,
 0x00,0x00,0x00,0x00,0x43,0xb1,0x4c,0xc1,0x00,0x00,0x00,0x00,0x83,0x32,0x8c,
 0xc2,0x00,0x00,0x00,0x00,0x83,0x32,0x4c,0xc1,0x00,0x00,0x00,0x00,0x0c,0x0c,
 0x30,0x30,0x00,0x00,0x00,0x00,0x0c,0x0c,0x31,0x30,0x00,0x00,0x00,0x00,0xf3,
 0x13,0xc0,0xcf,0x00,0x00,0x00,0x00,0xf3,0x03,0xc0,0xcf,0x00,0x00,0x00,0x00,
 0x03,0x40,0x04,0xc0,0x00,0x00,0x00,0x00,0x03,0x00,0x00,0xc0,0x00,0x00,0x00,
 0xc0,0x08,0x01,0x20,0x00,0x03,0x00,0x00,0xc0,0x00,0x08,0x01,0x02,0x03,0x00,
 0x00,0xc0,0x0c,0x00,0x04,0x30,0x03,0x00,0x00,0xc0,0x4c,0x00,0x10,0x30,0x03,
 0x00,0x00,0x30,0x02,0x21,0x80,0x08,0x0c,0x00,0x00,0x30,0x00,0x00,0x00,0x20,
 0x0c,0x00,0x00,0x30,0x0b,0x04,0x00,0xc0,0x0c,0x00,0x00,0x30,0x03,0x80,0x84,
 0xc0,0x0c,0x00,0x00,0x0c,0x40,0x00,0x00,0x02,0x30,0x00,0x00,0x8c,0x00,0x10,
 0x00,0x88,0x30,0x00,0x00,0x0c,0x04,0x01,0x10,0x00,0x30,0x00,0x00,0x1c,0x00,
 0x00,0x01,0x00,0x30,0x00,0x00,0xc3,0x10,0x08,0x40,0x40,0xc3,0x00,0x00,0xc3,
 0x40,0x20,0x00,0x04,0xc3,0x00,0x00,0x03,0x00,0x00,0x04,0x00,0xc4,0x00,0x00,
 0x23,0x01,0x01,0x10,0x20,0xc0,0x00,0x00,0x03,0x07,0x84,0x00,0x81,0xc0,0x00,
 0x00,0x07,0x03,0x00,0x00,0x00,0xc2,0x00,0x00,0x03,0x1c,0x10,0x00,0x30,0xc8,
 0x00,0x00,0x13,0x0c,0x40,0x48,0x34,0xc0,0x00,0x00,0xfc,0xf3,0x00,0x01,0xcf,
 0x3f,0x00,0x00,0xfc,0xf3,0x01,0x00,0xcf,0x3f,0x00,0x00,0x00,0x30,0xff,0xff,
 0x0c,0x00,0x00,0x00,0x00,0x30,0xff,0xff,0x0c,0x00,0x00,0x00,0x00,0x30,0x0c,
 0x30,0x0c,0x00,0x00,0x00,0x00,0x30,0x0c,0x30,0x0c,0x00,0x00,0x00,0x00,0xb0,
 0x0c,0xb0,0x0c,0x00,0x00,0x00,0x00,0x30,0x0c,0x30,0x0c,0x00,0x00,0x00,0xc0,
 0x3f,0x0c,0x30,0xfc,0x03,0x00,0x00,0xc0,0x3f,0x0c,0x30,0xfc,0x03,0x00,0x00,
 0x3c,0xc0,0x30,0x4c,0x03,0x3c,0x00,0x00,0x3c,0xc8,0x31,0x0c,0x03,0x3c,0x00,
 0x00,0x03,0x00,0xc0,0x03,0x00,0xc0,0x00,0x00,0x03,0x01,0xc4,0x13,0x24,0xc0,
 0x00,0x00,0xff,0xff,0xff,0xff,0xff,0xff,0x00,0x00,0xff,0xff,0xff,0xff,0xff,
 0xff,0x00};
