#define threads_width 64
#define threads_height 64
static unsigned char threads_bits[] = {
   0x00, 0x00, 0x00, 0x00, 0x00, 0x00, 0x00, 0x00, 0x00, 0x00, 0x00, 0x00,
   0x00, 0x00, 0x00, 0x00, 0x00, 0x00, 0x00, 0x00, 0x00, 0x00, 0x00, 0x00,
   0x00, 0x00, 0x00, 0x00, 0x00, 0x00, 0x00, 0x00, 0x00, 0x00, 0x00, 0x00,
   0x00, 0x00, 0x00, 0x00, 0x00, 0x00, 0x0f, 0x00, 0x00, 0x00, 0x00, 0x00,
   0x00, 0x00, 0x1c, 0x00, 0x00, 0x00, 0x00, 0x00, 0x00, 0x00, 0x10, 0x00,
   0x00, 0x00, 0x00, 0x00, 0x00, 0x00, 0x0c, 0x00, 0x00, 0x00, 0x00, 0x00,
   0x00, 0x00, 0x1e, 0x00, 0x00, 0x00, 0x00, 0x00, 0x00, 0x00, 0x2d, 0x00,
   0x00, 0x00, 0x00, 0x00, 0x00, 0xc0, 0x6d, 0x00, 0x00, 0x00, 0x00, 0x00,
   0x00, 0x20, 0xde, 0x00, 0x00, 0x00, 0x00, 0x00, 0x00, 0x50, 0x8c, 0x01,
   0x00, 0x00, 0x00, 0x00, 0xc0, 0x11, 0x00, 0x03, 0x00, 0x00, 0x00, 0x00,
   0x60, 0x23, 0x01, 0x06, 0x00, 0x00, 0x00, 0x00, 0x20, 0x7e, 0x38, 0x04,
   0x00, 0x00, 0x00, 0x00, 0x38, 0xc0, 0x7f, 0x04, 0x00, 0x00, 0x00, 0x00,
   0x20, 0x00, 0xfc, 0x05, 0x00, 0x00, 0x00, 0x00, 0x30, 0x00, 0x08, 0x04,
   0x00, 0x00, 0x00, 0x00, 0x00, 0x00, 0x08, 0x04, 0x00, 0x00, 0x00, 0x00,
   0x00, 0x00, 0x88, 0x07, 0x00, 0x00, 0x00, 0x00, 0x00, 0x00, 0xc8, 0x07,
   0xf0, 0x00, 0x00, 0x00, 0x00, 0x00, 0xc8, 0x07, 0x18, 0x01, 0x00, 0x00,
   0x00, 0x00, 0xc8, 0x07, 0x88, 0x03, 0x00, 0x00, 0x00, 0x00, 0x8c, 0x07,
   0x88, 0x07, 0x00, 0x00, 0x00, 0x00, 0x06, 0x07, 0x8c, 0x07, 0x00, 0x00,
   0x00, 0x00, 0x03, 0x07, 0x0e, 0x07, 0x00, 0x00, 0x00, 0x80, 0x0f, 0x02,
   0x0f, 0x07, 0x00, 0x00, 0x00, 0x80, 0x0f, 0x01, 0x37, 0x06, 0x00, 0x00,
   0x00, 0xc0, 0x8f, 0x80, 0x18, 0x06, 0x00, 0x00, 0x00, 0xc0, 0x4e, 0xc0,
   0x19, 0x03, 0x00, 0x00, 0x00, 0xc0, 0x26, 0xe0, 0x15, 0x01, 0x00, 0x00,
   0x00, 0x40, 0x18, 0xd8, 0x8e, 0x00, 0x00, 0x00, 0x00, 0x60, 0x0c, 0x0c,
   0xcb, 0x00, 0x00, 0x00, 0x00, 0x20, 0x04, 0x03, 0x7d, 0x00, 0x00, 0x00,
   0x00, 0x20, 0xcc, 0xb9, 0x3c, 0x00, 0x00, 0x00, 0x00, 0xe0, 0xf9, 0x78,
   0x3e, 0x00, 0x00, 0x00, 0x00, 0xc0, 0xf3, 0x78, 0x12, 0x00, 0x00, 0x00,
   0x00, 0xc0, 0xf3, 0x30, 0x12, 0x00, 0x00, 0x00, 0x00, 0x80, 0x63, 0x0c,
   0x1b, 0x00, 0x00, 0x00, 0x00, 0x00, 0x07, 0x07, 0x19, 0x00, 0x00, 0x00,
   0x00, 0x00, 0xfc, 0x01, 0x19, 0x40, 0x00, 0x00, 0x00, 0x00, 0x00, 0x00,
   0x3b, 0xe0, 0x00, 0x00, 0x00, 0x00, 0x00, 0x00, 0x72, 0xa0, 0x00, 0x00,
   0x00, 0x00, 0x00, 0x00, 0xc4, 0xff, 0x00, 0x00, 0x00, 0x00, 0x00, 0x00,
   0x4c, 0xd5, 0x00, 0x00, 0x00, 0x00, 0x00, 0x00, 0xf0, 0x7f, 0x00, 0x00,
   0x00, 0x00, 0x00, 0x00, 0x00, 0x00, 0x00, 0x00, 0x00, 0x00, 0x00, 0x00,
   0x00, 0x00, 0x00, 0x00, 0x00, 0x00, 0x00, 0x00, 0x00, 0x00, 0x00, 0x00,
   0x00, 0x00, 0x00, 0x00, 0x00, 0x00, 0x00, 0x00, 0x00, 0x00, 0x00, 0x00,
   0x00, 0x00, 0x00, 0x00, 0x00, 0x00, 0x00, 0x00, 0x00, 0x00, 0x00, 0x00,
   0x00, 0x00, 0x00, 0x00, 0x00, 0x00, 0x00, 0x00, 0x00, 0x00, 0x00, 0x00,
   0x00, 0x00, 0x00, 0x00, 0x00, 0x00, 0x00, 0x00, 0x00, 0x00, 0x00, 0x00,
   0x00, 0x00, 0x00, 0x00, 0x00, 0x00, 0x00, 0x00, 0x00, 0x00, 0x00, 0x00,
   0x00, 0x00, 0x00, 0x00, 0x00, 0x00, 0x00, 0x00, 0x00, 0x00, 0x00, 0x00,
   0x00, 0x00, 0x00, 0x00, 0x00, 0x00, 0x00, 0x00, 0x00, 0x00, 0x00, 0x00,
   0x00, 0x00, 0x00, 0x00, 0x00, 0x00, 0x00, 0x00, 0x00, 0x00, 0x00, 0x00,
   0x00, 0x00, 0x00, 0x00, 0x00, 0x00, 0x00, 0x00};
