#define blocked.xbm_width 64
#define blocked.xbm_height 64
static unsigned char blocked.xbm_bits[] = {
   0x00, 0x00, 0x00, 0x00, 0x00, 0x00, 0x00, 0x00, 0x00, 0x00, 0x00, 0x00,
   0x00, 0x00, 0x00, 0x00, 0x00, 0x00, 0x00, 0x00, 0x00, 0x00, 0x00, 0x00,
   0x00, 0x00, 0x00, 0x00, 0x00, 0x00, 0x00, 0x00, 0x00, 0x00, 0x00, 0x00,
   0x00, 0x00, 0x00, 0x00, 0x00, 0x00, 0x0f, 0x00, 0x00, 0x00, 0x00, 0x00,
   0x00, 0x00, 0x1c, 0x00, 0x00, 0x00, 0x00, 0x00, 0x00, 0x00, 0x10, 0x00,
   0x00, 0x00, 0x00, 0x00, 0x00, 0x00, 0x0c, 0x00, 0x00, 0x00, 0x00, 0x00,
   0x00, 0x00, 0x1e, 0x00, 0x00, 0x00, 0x00, 0x00, 0x00, 0x00, 0x2d, 0x00,
   0x00, 0x00, 0x00, 0x00, 0x00, 0xc0, 0x6d, 0x00, 0x00, 0x00, 0x00, 0x00,
   0x00, 0x20, 0xde, 0x00, 0x00, 0x00, 0x00, 0x00, 0x00, 0x50, 0x8c, 0x01,
   0x00, 0x00, 0x00, 0x00, 0xc0, 0x11, 0x00, 0x03, 0x00, 0x00, 0x00, 0x00,
   0x60, 0x23, 0x01, 0x06, 0x00, 0x00, 0x00, 0x00, 0x20, 0x7e, 0x38, 0x04,
   0x00, 0x00, 0x00, 0x00, 0x38, 0xc0, 0x7f, 0x04, 0x00, 0x00, 0x00, 0x00,
   0x20, 0x00, 0xfc, 0xff, 0x01, 0x00, 0x00, 0x00, 0x30, 0x00, 0x48, 0x00,
   0x02, 0x00, 0x00, 0x00, 0x00, 0x00, 0x28, 0x00, 0x04, 0x00, 0x00, 0x00,
   0x00, 0x00, 0x18, 0x00, 0x08, 0x00, 0x00, 0x00, 0x00, 0x00, 0x08, 0x00,
   0xf0, 0x00, 0x00, 0x00, 0x00, 0x00, 0x04, 0x00, 0x60, 0x01, 0x00, 0x00,
   0x00, 0x00, 0x02, 0x00, 0xc0, 0x03, 0x00, 0x00, 0x00, 0x00, 0x01, 0x00,
   0x80, 0x07, 0x00, 0x00, 0x00, 0x80, 0x00, 0x00, 0x00, 0x07, 0x00, 0x00,
   0x00, 0x40, 0x00, 0x00, 0x00, 0x06, 0x00, 0x00, 0x00, 0x40, 0x98, 0xcf,
   0x1c, 0x06, 0x00, 0x00, 0x00, 0x40, 0x24, 0x22, 0x25, 0x06, 0x00, 0x00,
   0x00, 0x40, 0x04, 0x22, 0x25, 0x06, 0x00, 0x00, 0x00, 0x40, 0x18, 0x22,
   0x1d, 0x02, 0x00, 0x00, 0x00, 0x40, 0x20, 0x22, 0x05, 0x02, 0x00, 0x00,
   0x00, 0x40, 0x24, 0x22, 0x05, 0x02, 0x00, 0x00, 0x00, 0x60, 0x18, 0xc2,
   0x04, 0x02, 0x00, 0x00, 0x00, 0x60, 0x00, 0x00, 0x00, 0x02, 0x00, 0x00,
   0x00, 0x60, 0x00, 0x00, 0x00, 0x01, 0x00, 0x00, 0x00, 0xe0, 0x00, 0x00,
   0x80, 0x00, 0x00, 0x00, 0x00, 0x80, 0x01, 0x00, 0x40, 0x00, 0x00, 0x00,
   0x00, 0x00, 0x02, 0x00, 0x20, 0x00, 0x00, 0x00, 0x00, 0x00, 0x04, 0x00,
   0x10, 0x00, 0x00, 0x00, 0x00, 0x00, 0x08, 0x00, 0x18, 0x00, 0x00, 0x00,
   0x00, 0x00, 0x10, 0x00, 0x1c, 0x40, 0x00, 0x00, 0x00, 0x00, 0x20, 0x00,
   0x3a, 0xe0, 0x00, 0x00, 0x00, 0x00, 0xc0, 0xff, 0x73, 0xa0, 0x00, 0x00,
   0x00, 0x00, 0x00, 0x00, 0xc6, 0xff, 0x00, 0x00, 0x00, 0x00, 0x00, 0x00,
   0x4c, 0xd5, 0x00, 0x00, 0x00, 0x00, 0x00, 0x00, 0xf0, 0x7f, 0x00, 0x00,
   0x00, 0x00, 0x00, 0x00, 0x00, 0x00, 0x00, 0x00, 0x00, 0x00, 0x00, 0x00,
   0x00, 0x00, 0x00, 0x00, 0x00, 0x00, 0x00, 0x00, 0x00, 0x00, 0x00, 0x00,
   0x00, 0x00, 0x00, 0x00, 0x00, 0x00, 0x00, 0x00, 0x00, 0x00, 0x00, 0x00,
   0x00, 0x00, 0x00, 0x00, 0x00, 0x00, 0x00, 0x00, 0x00, 0x00, 0x00, 0x00,
   0x00, 0x00, 0x00, 0x00, 0x00, 0x00, 0x00, 0x00, 0x00, 0x00, 0x00, 0x00,
   0x00, 0x00, 0x00, 0x00, 0x00, 0x00, 0x00, 0x00, 0x00, 0x00, 0x00, 0x00,
   0x00, 0x00, 0x00, 0x00, 0x00, 0x00, 0x00, 0x00, 0x00, 0x00, 0x00, 0x00,
   0x00, 0x00, 0x00, 0x00, 0x00, 0x00, 0x00, 0x00, 0x00, 0x00, 0x00, 0x00,
   0x00, 0x00, 0x00, 0x00, 0x00, 0x00, 0x00, 0x00, 0x00, 0x00, 0x00, 0x00,
   0x00, 0x00, 0x00, 0x00, 0x00, 0x00, 0x00, 0x00, 0x00, 0x00, 0x00, 0x00,
   0x00, 0x00, 0x00, 0x00, 0x00, 0x00, 0x00, 0x00};
