#define host.xbm_width 64
#define host.xbm_height 64
static unsigned char host.xbm_bits[] = {
   0x00, 0xfc, 0xff, 0xff, 0xff, 0xff, 0xff, 0x03, 0x00, 0x02, 0x00, 0x00,
   0x00, 0x00, 0x00, 0x05, 0x00, 0x01, 0x00, 0x00, 0x00, 0x00, 0x80, 0x04,
   0x80, 0xff, 0xff, 0xff, 0xff, 0xff, 0x7f, 0x04, 0xc0, 0x00, 0x00, 0x00,
   0x00, 0x00, 0xc0, 0x04, 0x40, 0x00, 0x00, 0x00, 0x00, 0x00, 0x80, 0x04,
   0x40, 0x00, 0x00, 0x00, 0x00, 0x00, 0x80, 0x04, 0x40, 0xf8, 0xff, 0xff,
   0xff, 0xff, 0x87, 0x04, 0x40, 0x0c, 0x00, 0x00, 0x00, 0x00, 0x8c, 0x04,
   0x40, 0x04, 0x00, 0x00, 0x00, 0x00, 0x88, 0x04, 0x40, 0x04, 0x00, 0x00,
   0x00, 0xe0, 0x88, 0x04, 0x40, 0x04, 0x00, 0x00, 0x00, 0xe0, 0x89, 0x04,
   0x40, 0x04, 0x00, 0x00, 0x00, 0x80, 0x8b, 0x04, 0x40, 0x04, 0x00, 0x00,
   0x00, 0x1e, 0x8b, 0x04, 0x40, 0x04, 0x00, 0x00, 0x00, 0xff, 0x8b, 0x04,
   0x40, 0x04, 0x00, 0x00, 0x00, 0xe7, 0x8b, 0x04, 0x40, 0xc4, 0x7f, 0xe0,
   0x83, 0x9e, 0x89, 0x04, 0x40, 0x44, 0x80, 0x21, 0x44, 0x3f, 0x88, 0x04,
   0x40, 0x44, 0x00, 0x22, 0x44, 0x38, 0x88, 0x04, 0x40, 0x44, 0x00, 0x24,
   0x28, 0x38, 0x88, 0x04, 0x40, 0x44, 0x7c, 0x24, 0x28, 0x08, 0x88, 0x04,
   0x40, 0x44, 0x84, 0x28, 0x10, 0x08, 0x88, 0x04, 0x40, 0x44, 0x04, 0x29,
   0x10, 0x08, 0x88, 0x04, 0x40, 0x44, 0x84, 0x28, 0x82, 0x08, 0x88, 0x04,
   0x40, 0x44, 0x7c, 0x24, 0xc6, 0x08, 0x88, 0x04, 0x40, 0x44, 0x00, 0x24,
   0xc6, 0x08, 0x88, 0x04, 0x40, 0x44, 0x00, 0x22, 0xaa, 0x08, 0x88, 0x04,
   0x40, 0x44, 0x80, 0x21, 0xaa, 0x08, 0x88, 0x04, 0x40, 0x44, 0x7c, 0x20,
   0x92, 0x08, 0x88, 0x04, 0x40, 0x44, 0x04, 0x20, 0x92, 0x08, 0x88, 0x04,
   0x40, 0x44, 0x04, 0x20, 0x82, 0x08, 0x88, 0x04, 0x40, 0x44, 0x04, 0x20,
   0x82, 0x08, 0x88, 0x04, 0x40, 0x44, 0x04, 0x20, 0x82, 0x08, 0x88, 0x04,
   0x40, 0x44, 0x04, 0x20, 0x82, 0x08, 0x88, 0x04, 0x40, 0x44, 0x04, 0x20,
   0x82, 0x08, 0x88, 0x04, 0x40, 0xc4, 0x07, 0xe0, 0x83, 0x0f, 0x88, 0x04,
   0x40, 0x04, 0x00, 0x00, 0x00, 0x00, 0x88, 0x04, 0x40, 0x04, 0x00, 0x00,
   0x00, 0x00, 0x88, 0x04, 0x40, 0x04, 0x00, 0x00, 0x00, 0x00, 0x88, 0x04,
   0x40, 0x0c, 0x00, 0x00, 0x00, 0x00, 0x8c, 0x04, 0x40, 0xf8, 0xff, 0xff,
   0xff, 0xff, 0x87, 0x04, 0x40, 0x00, 0x00, 0x00, 0x00, 0x00, 0x80, 0x02,
   0x40, 0x00, 0x00, 0x00, 0x00, 0x00, 0x80, 0x01, 0xc0, 0x00, 0x00, 0x00,
   0x00, 0x00, 0xc0, 0x00, 0x80, 0xff, 0xff, 0xff, 0xff, 0xff, 0x7f, 0x00,
   0x00, 0x00, 0x08, 0x00, 0x00, 0x08, 0x00, 0x00, 0x00, 0x00, 0x10, 0x00,
   0x00, 0x04, 0x00, 0x00, 0xf8, 0xff, 0x2f, 0x00, 0x00, 0xfa, 0xff, 0xff,
   0x04, 0x00, 0xc0, 0xff, 0xff, 0x01, 0x00, 0xc0, 0x02, 0x00, 0x00, 0x00,
   0x00, 0x00, 0x00, 0xa0, 0xff, 0xff, 0xff, 0xff, 0xff, 0xff, 0xff, 0x9f,
   0x01, 0x00, 0x00, 0x00, 0x00, 0x00, 0x00, 0x90, 0x11, 0x00, 0x66, 0x66,
   0x66, 0x66, 0x66, 0x93, 0x29, 0x7f, 0x66, 0x66, 0x66, 0x66, 0x66, 0x93,
   0x45, 0x7f, 0x00, 0x00, 0x00, 0x00, 0x00, 0x90, 0x29, 0x00, 0x99, 0x99,
   0x99, 0x99, 0x99, 0x9c, 0x11, 0x80, 0x99, 0x99, 0x99, 0x99, 0x99, 0x9c,
   0x01, 0x00, 0x00, 0x00, 0x00, 0x00, 0x00, 0x90, 0x67, 0x66, 0x66, 0x66,
   0x66, 0x66, 0x66, 0x93, 0x67, 0x66, 0x66, 0x66, 0x66, 0x66, 0x66, 0x53,
   0x01, 0x00, 0x00, 0x00, 0x00, 0x00, 0x00, 0x30, 0xff, 0xff, 0xff, 0xff,
   0xff, 0xff, 0xff, 0x1f, 0x00, 0x00, 0x00, 0x00, 0x00, 0x00, 0x00, 0x00,
   0x00, 0x00, 0x00, 0x00, 0x00, 0x00, 0x00, 0x00};
